<?xml version="1.0" encoding="utf-8"?>
<!-- Generator: Adobe Illustrator 23.0.3, SVG Export Plug-In . SVG Version: 6.00 Build 0)  -->
<svg version="1.1" baseProfile="tiny" id="Layer_1" xmlns="http://www.w3.org/2000/svg" xmlns:xlink="http://www.w3.org/1999/xlink"
	 x="0px" y="0px" viewBox="0 0 500 500" xml:space="preserve">
<circle fill="#FFFFFF" cx="250" cy="250" r="250"/>
<circle fill="#1EB7AD" cx="213.8" cy="271.3" r="32.6"/>
<circle fill="#1EB7AD" cx="349.7" cy="268.8" r="32.6"/>
<path fill="#1EB7AD" d="M291,268.1l23.4-103.4c0.2-0.7,0.8-1.3,1.6-1.3h25.7c0,0,0.1,0,0.1,0c2,0.1,66,4.6,66.2,56.4
	c0,0.1,0,0.2,0,0.4c-0.5,2.1-5,23.3-11.2,51.4c-0.2,0.7-0.8,1.3-1.6,1.3l0,0c-0.9,0-1.6-0.7-1.6-1.6c-0.2-8.1-3.1-44.3-42.4-44.3
	c0,0-41-2.6-41.8,46.4c0,0.9-0.7,1.6-1.6,1.6h-12c-0.6,0-1.1-0.3-1.4-0.7l-3.2-4.8C291,269,290.9,268.5,291,268.1z"/>
<path fill="#1EB7AD" d="M160.8,126.9h135.7c6.8,0,12.2,5.9,11.3,12.6c0,0.1,0,0.2,0,0.3c-1.3,8.5-21.9,97.8-28.5,126.4
	c-1.2,5.1-5.8,8.7-11,8.7h-0.4c-5.7,0-10.6-4.2-11.3-9.8c-1.8-14.3-10.2-39.2-47.3-41c-2.5-0.1-4.8-1.2-6.4-3.1
	c-0.4-0.5-0.9-1-1.4-1.5c-3-2.8-3.4-7.4-1.3-10.9c3.9-6.6,7.2-16.1,0.1-24c-2.7-2.9-3.3-7.2-1.1-10.5c4.4-6.6,8.8-18.1-1.4-31.2
	c-2.1-2.6-5.3-4.1-8.7-4.1l-25.8,0c-5.3,0-8.1-2.6-8-5.8C155.3,130.9,155.2,126.9,160.8,126.9z"/>
<path fill="#1EB7AD" d="M186.3,167.3h-49.3c-5.4,0-9.8-4.4-9.8-9.8v0c0-5.4,4.4-9.8,9.8-9.8h49.3c5.4,0,9.8,4.4,9.8,9.8v0
	C196,162.9,191.7,167.3,186.3,167.3z"/>
<path fill="#1EB7AD" d="M185.2,209h-60.6c-6,0-10.9-4.9-10.9-10.9v0c0-6,4.9-10.9,10.9-10.9h60.6c6,0,10.9,4.9,10.9,10.9v0
	C196,204.1,191.2,209,185.2,209z"/>
<path fill="#1EB7AD" d="M175.3,245h-56.8c-6.7,0-12.2-5.5-12.2-12.2v0c0-6.7,5.5-12.2,12.2-12.2h56.8c6.7,0,12.2,5.5,12.2,12.2v0
	C187.5,239.6,182,245,175.3,245z"/>
<path fill="#1EB7AD" d="M160.4,277.1h-21.5c-6.5,0-11.8-5.3-11.8-11.8v0c0-6.5,5.3-11.8,11.8-11.8h37.9l-3,6.3
	c-0.1,0.2-0.2,0.5-0.3,0.8l-2,4.3C171.5,264.8,166.9,277.1,160.4,277.1z"/>
<g>
	<path fill="#525554" d="M128.4,366.9c0.8,0,1.5-0.2,2.1-0.5l-0.3,5.8c-1.6,1.3-3.5,2-5.5,2c-4.7,0-7-2-7-5.9c0-0.7,0.1-1.4,0.2-2.2
		l1.1-6.3c0.1-0.6,0.2-1.2,0.2-1.9c0-1.6-0.9-2.5-2.6-2.5c-1.7,0-3.1,0.6-4,1.8l-2.9,16.3h-8.8l6.9-39.1h8.8l-2.9,16.7
		c1.9-2,4.3-3,7.1-3c3.5,0,5.7,0.8,6.8,2.3c0.7,1,1.1,2.2,1.1,3.5s-0.1,2.4-0.3,3.5l-1.4,7.7c0,0.2-0.1,0.4-0.1,0.6
		C126.9,366.5,127.4,366.9,128.4,366.9z"/>
	<path fill="#525554" d="M144,374.3c-7.2,0-10.7-2.5-10.7-7.4c0-0.7,0.1-1.4,0.2-2.2l1.1-6.4c0.6-3.3,2.1-5.8,4.6-7.6
		c2.5-1.8,5.7-2.7,9.8-2.7c6.9,0,10.4,2.6,10.4,7.8c0,0.8-0.1,1.6-0.2,2.5l-0.6,3.7h-15.7l-0.2,1.2c-0.1,0.4-0.1,0.8-0.1,1.1
		c0,1.9,1.1,2.8,3.4,2.8c0.8,0,1.5-0.3,2.1-0.8c0.6-0.5,0.9-1.1,1-1.8l8.6,0.1C156.3,371,151.8,374.3,144,374.3z M150.2,358.8
		c0.1-0.6,0.2-1.1,0.2-1.6s-0.2-1-0.7-1.5c-0.4-0.5-1.2-0.8-2.1-0.8c-1,0-1.9,0.3-2.7,1c-0.8,0.7-1.4,1.6-1.7,2.9H150.2z"/>
	<path fill="#525554" d="M204.7,366.9c0.8,0,1.5-0.2,2.1-0.5l-0.3,5.8c-1.6,1.3-3.5,2-5.5,2c-4.7,0-7-2-7-5.9c0-0.7,0.1-1.4,0.2-2.2
		l1.1-6.3c0.1-0.6,0.2-1.2,0.2-1.9c0-1.6-0.9-2.5-2.7-2.5c-1.8,0-3.2,0.7-4.3,2.1l-2.8,15.9H177l2.4-13.7c0.1-0.6,0.2-1.2,0.2-1.9
		c0-1.6-0.9-2.5-2.8-2.5c-1.5,0-2.8,0.6-3.8,1.7l-2.9,16.3h-8.8l4.4-24.8h8.1l-0.6,3.1c2.1-2.5,4.7-3.8,7.8-3.8c4.5,0,7,1.5,7.6,4.4
		c2.1-3,4.8-4.4,8.3-4.4s5.7,0.8,6.7,2.3c0.7,1.1,1,2.2,1,3.5c0,1.3-0.1,2.4-0.3,3.5l-1.3,7.7c0,0.2-0.1,0.4-0.1,0.6
		C203.2,366.5,203.7,366.9,204.7,366.9z"/>
	<path fill="#525554" d="M220.3,374.3c-7.2,0-10.7-2.5-10.7-7.4c0-0.7,0.1-1.4,0.2-2.2l1.1-6.4c0.6-3.3,2.1-5.8,4.6-7.6
		c2.5-1.8,5.7-2.7,9.8-2.7c6.9,0,10.4,2.6,10.4,7.8c0,0.8-0.1,1.6-0.2,2.5l-0.6,3.7H219l-0.2,1.2c-0.1,0.4-0.1,0.8-0.1,1.1
		c0,1.9,1.1,2.8,3.4,2.8c0.8,0,1.5-0.3,2.1-0.8c0.6-0.5,0.9-1.1,1-1.8l8.6,0.1C232.6,371,228.1,374.3,220.3,374.3z M226.5,358.8
		c0.1-0.6,0.2-1.1,0.2-1.6s-0.2-1-0.7-1.5c-0.4-0.5-1.2-0.8-2.1-0.8s-1.9,0.3-2.7,1c-0.8,0.7-1.4,1.6-1.7,2.9H226.5z"/>
	<path fill="#525554" d="M254.9,357.7c0-1.5-0.7-2.2-2.1-2.2c-1.4,0-2.6,0.5-3.5,1.6l-2.9,16.5h-8.8l4.4-24.8h8.1l-0.6,3
		c2-2.5,4.6-3.8,7.7-3.8c3.1,0,5.1,0.8,6,2.3c0.6,1,0.9,2.1,0.9,3.3c0,1.2-0.1,2.4-0.3,3.5l-1.4,7.9c0,0.2-0.1,0.4-0.1,0.6
		c0,0.9,0.5,1.4,1.5,1.4c0.8,0,1.5-0.2,2.1-0.5l-0.3,5.8c-1.6,1.3-3.5,2-5.5,2c-4.7,0-7-2-7-5.9c0-0.7,0.1-1.4,0.2-2.2l1.2-6.9
		C254.9,358.7,254.9,358.1,254.9,357.7z"/>
	<path fill="#525554" d="M279,362.4c-0.1,0.6-0.2,1.2-0.2,1.9c0,1.7,0.9,2.5,2.8,2.5c1.5,0,2.8-0.5,3.8-1.6l2.9-16.5h8.8l-4.5,25.6
		c-0.8,4.4-2.5,7.8-5.2,10.4c-2.7,2.5-5.8,3.8-9.3,3.8c-3.5,0-6-0.6-7.5-1.9c-1.5-1.3-2.3-2.9-2.3-5c0-2.9,1.8-5.5,5.4-7.8
		c-2-0.5-3.2-1.5-3.7-2.9c-0.3-0.8-0.5-1.8-0.5-2.8s0.1-2.1,0.3-3.1l2.9-16.2h8.8L279,362.4z M279.3,381.2c2.2,0,3.7-2,4.4-6.1
		l0.5-3c-4.8,2.2-7.2,4.5-7.2,6.8c0,0.7,0.2,1.2,0.6,1.7C278,381,278.6,381.2,279.3,381.2z"/>
	<path fill="#525554" d="M323.4,365.6c0,0.9,0.5,1.3,1.4,1.3c0.9,0,1.7-0.2,2.3-0.5l-0.3,5.8c-1.7,1.3-3.5,2-5.6,2
		c-3.9,0-6-1.5-6.3-4.5c-2.1,3-4.8,4.5-8.3,4.5c-3.5,0-5.8-0.8-6.8-2.4c-0.7-1-1-2.1-1-3.4s0.1-2.4,0.3-3.5l2.9-16.2h8.8l-2.4,13.7
		c-0.1,0.6-0.2,1.2-0.2,1.9c0,1.7,0.9,2.5,2.8,2.5c1.5,0,2.8-0.5,3.7-1.6l2.9-16.5h8.8l-2.9,16.2
		C323.5,365.2,323.4,365.4,323.4,365.6z M304.8,341.5c0-1.8,0.4-3,1.2-3.8c0.8-0.8,2-1.2,3.7-1.2c2.3,0,3.5,1,3.5,3
		c0,1.8-0.4,3-1.2,3.8c-0.8,0.8-2,1.2-3.7,1.2C305.9,344.4,304.8,343.5,304.8,341.5z M319.3,341.5c0-1.8,0.4-3,1.2-3.8
		c0.8-0.8,2-1.2,3.7-1.2c2.3,0,3.5,1,3.5,3c0,1.8-0.4,3-1.2,3.8c-0.8,0.8-2,1.2-3.7,1.2C320.4,344.4,319.3,343.5,319.3,341.5z"/>
	<path fill="#525554" d="M355,366.9c0.8,0,1.5-0.2,2.1-0.5l-0.3,5.8c-1.6,1.3-3.6,2-5.9,2c-2.3,0-4.1-0.6-5.2-1.9
		c-1.1-1.2-2-3.3-2.6-6.2l-0.2-0.7c-0.7,0.1-1.8,0.2-3.2,0.3l-1.4,7.8h-8.8l6.9-39.1h8.8l-3,17c2-2.2,4.8-3.4,8.3-3.4
		c2.3,0,4.1,0.6,5.2,1.7c1.1,1.2,1.7,2.7,1.7,4.6c0,3.7-1.9,6.6-5.8,8.7l0.6,1.9C352.5,366.3,353.4,366.9,355,366.9z M346.1,355
		c-1.9,0-3.5,0.9-5,2.6l-0.6,3.4c5.1-0.2,7.6-1.6,7.6-4.1c0-0.6-0.2-1.1-0.5-1.4C347.3,355.2,346.8,355,346.1,355z"/>
	<path fill="#525554" d="M370.9,365.6c0,0.9,0.5,1.3,1.4,1.3c0.9,0,1.7-0.2,2.3-0.5l-0.3,5.8c-1.6,1.3-3.5,2-5.6,2
		c-3.1,0-5.2-0.7-6.1-2.2c-0.6-0.9-0.9-1.9-0.9-3s0.1-2.1,0.2-2.9l5.6-31.8h8.8L371,365C370.9,365.2,370.9,365.4,370.9,365.6z"/>
	<path fill="#525554" d="M388.2,374.3c-7.2,0-10.7-2.5-10.7-7.4c0-0.7,0.1-1.4,0.2-2.2l1.1-6.4c0.6-3.3,2.1-5.8,4.6-7.6
		c2.5-1.8,5.7-2.7,9.8-2.7c6.9,0,10.4,2.6,10.4,7.8c0,0.8-0.1,1.6-0.2,2.5l-0.6,3.7h-15.7l-0.2,1.2c-0.1,0.4-0.1,0.8-0.1,1.1
		c0,1.9,1.1,2.8,3.4,2.8c0.8,0,1.5-0.3,2.1-0.8c0.6-0.5,0.9-1.1,1-1.8l8.6,0.1C400.5,371,396,374.3,388.2,374.3z M394.4,358.8
		c0.1-0.6,0.2-1.1,0.2-1.6s-0.2-1-0.7-1.5c-0.4-0.5-1.2-0.8-2.1-0.8s-1.9,0.3-2.7,1c-0.8,0.7-1.4,1.6-1.7,2.9H394.4z"/>
</g>
</svg>
